<svg width="162" height="24" viewBox="0 0 162 24" fill="none" xmlns="http://www.w3.org/2000/svg">
<path fill-rule="evenodd" clip-rule="evenodd" d="M13.8593 5.06119L18.9388 10.1408L17.0796 17.0796L10.1408 18.9388L5.0612 13.8593L6.92045 6.92044L13.8593 5.06119ZM8.3208 8.32079L6.97411 13.3467L10.6533 17.0259L15.6792 15.6792L17.0259 10.6533L13.3467 6.9741L8.3208 8.32079Z" fill="#E7E7E7"/>
<path fill-rule="evenodd" clip-rule="evenodd" d="M15.2154 0L24 8.78461L20.7846 20.7846L8.78461 24L0 15.2154L3.21539 3.21539L15.2154 0ZM4.61574 4.61574L1.91291 14.7028L9.29717 22.0871L19.3843 19.3843L22.0871 9.29717L14.7028 1.91291L4.61574 4.61574Z" fill="#001AFF"/>
<path d="M35.5496 18.5414H41.1059V19.8032H34V4.32962H35.5496V18.5414Z" fill="#E7E7E7"/>
<path d="M45.7524 5.59141V11.3691H51.6186V12.653H45.7524V18.5193H52.2827V19.8032H44.2028V4.30748H52.2827V5.59141H45.7524Z" fill="#E7E7E7"/>
<path d="M68.3968 8.84552C67.954 7.82723 67.2752 7.03031 66.3602 6.45475C65.4599 5.86443 64.3974 5.56928 63.1725 5.56928C62.0214 5.56928 60.9883 5.83492 60.0733 6.3662C59.1583 6.89748 58.4352 7.65751 57.9039 8.64629C57.3726 9.62031 57.107 10.7567 57.107 12.0554C57.107 13.354 57.3726 14.4978 57.9039 15.4866C58.4352 16.4753 59.1583 17.2354 60.0733 17.7666C60.9883 18.2979 62.0214 18.5636 63.1725 18.5636C64.2498 18.5636 65.2164 18.3348 66.0724 17.8773C66.9431 17.4051 67.6367 16.741 68.1533 15.885C68.6845 15.0143 68.9871 14.0034 69.0609 12.8523H62.5526V11.5905H70.699V12.7195C70.6252 14.0772 70.2562 15.3095 69.5921 16.4163C68.928 17.5084 68.0352 18.3717 66.9136 19.0063C65.8068 19.6409 64.5597 19.9582 63.1725 19.9582C61.741 19.9582 60.4423 19.6261 59.2764 18.962C58.1105 18.2832 57.1882 17.346 56.5093 16.1507C55.8452 14.9405 55.5131 13.5754 55.5131 12.0554C55.5131 10.5353 55.8452 9.17757 56.5093 7.98219C57.1882 6.77204 58.1105 5.83492 59.2764 5.17082C60.4423 4.49195 61.741 4.15252 63.1725 4.15252C64.8254 4.15252 66.2716 4.56574 67.5113 5.39218C68.7509 6.21862 69.6512 7.36974 70.212 8.84552H68.3968Z" fill="#E7E7E7"/>
<path d="M83.3884 16.1285H76.3489L74.9985 19.8032H73.3604L79.0053 4.52885H80.7541L86.3768 19.8032H84.7387L83.3884 16.1285ZM82.9235 14.8446L79.8686 6.47688L76.8138 14.8446H82.9235Z" fill="#E7E7E7"/>
<path d="M91.2988 18.5414H96.8552V19.8032H89.7492V4.32962H91.2988V18.5414Z" fill="#E7E7E7"/>
<path d="M111.175 11.834C112.076 12.0258 112.799 12.476 113.345 13.1843C113.891 13.878 114.164 14.6749 114.164 15.5751C114.164 16.8738 113.706 17.9068 112.791 18.6743C111.891 19.4269 110.629 19.8032 109.006 19.8032H101.767V4.26321H108.762C110.342 4.26321 111.574 4.62477 112.459 5.34791C113.36 6.07104 113.81 7.05244 113.81 8.2921C113.81 9.20709 113.566 9.96712 113.079 10.5722C112.607 11.1773 111.972 11.5979 111.175 11.834ZM105.553 10.5501H108.032C108.652 10.5501 109.124 10.4172 109.449 10.1516C109.788 9.87119 109.958 9.46535 109.958 8.93407C109.958 8.40279 109.788 7.99695 109.449 7.71655C109.124 7.43615 108.652 7.29595 108.032 7.29595H105.553V10.5501ZM108.342 16.7484C108.976 16.7484 109.463 16.6082 109.803 16.3278C110.157 16.0326 110.334 15.612 110.334 15.066C110.334 14.5199 110.15 14.0919 109.781 13.782C109.427 13.4721 108.932 13.3172 108.298 13.3172H105.553V16.7484H108.342Z" fill="#001AFF"/>
<path d="M124.594 19.9582C123.133 19.9582 121.79 19.6188 120.565 18.9399C119.355 18.261 118.389 17.3165 117.665 16.1064C116.957 14.8815 116.603 13.509 116.603 11.9889C116.603 10.4689 116.957 9.10378 117.665 7.89364C118.389 6.6835 119.355 5.73899 120.565 5.06013C121.79 4.38127 123.133 4.04184 124.594 4.04184C126.055 4.04184 127.391 4.38127 128.601 5.06013C129.826 5.73899 130.785 6.6835 131.479 7.89364C132.187 9.10378 132.541 10.4689 132.541 11.9889C132.541 13.509 132.187 14.8815 131.479 16.1064C130.77 17.3165 129.811 18.261 128.601 18.9399C127.391 19.6188 126.055 19.9582 124.594 19.9582ZM124.594 16.5048C125.834 16.5048 126.823 16.0916 127.561 15.2652C128.313 14.4387 128.69 13.3467 128.69 11.9889C128.69 10.6165 128.313 9.52438 127.561 8.7127C126.823 7.88626 125.834 7.47304 124.594 7.47304C123.34 7.47304 122.336 7.87888 121.584 8.69056C120.846 9.50225 120.477 10.6017 120.477 11.9889C120.477 13.3614 120.846 14.4609 121.584 15.2873C122.336 16.099 123.34 16.5048 124.594 16.5048Z" fill="#001AFF"/>
<path d="M141.156 19.9582C140.019 19.9582 139.001 19.7737 138.101 19.4048C137.2 19.0358 136.477 18.4898 135.931 17.7666C135.4 17.0435 135.12 16.1728 135.09 15.1545H139.119C139.178 15.7301 139.377 16.1728 139.717 16.4827C140.056 16.7779 140.499 16.9254 141.045 16.9254C141.606 16.9254 142.048 16.8 142.373 16.5491C142.698 16.2835 142.86 15.9219 142.86 15.4644C142.86 15.0807 142.727 14.7634 142.462 14.5125C142.211 14.2617 141.893 14.055 141.51 13.8927C141.141 13.7304 140.609 13.5459 139.916 13.3393C138.912 13.0294 138.093 12.7195 137.459 12.4095C136.824 12.0996 136.278 11.6421 135.821 11.0371C135.363 10.432 135.134 9.64245 135.134 8.66843C135.134 7.22216 135.658 6.09318 136.706 5.2815C137.754 4.45506 139.119 4.04184 140.801 4.04184C142.513 4.04184 143.893 4.45506 144.941 5.2815C145.989 6.09318 146.55 7.22954 146.623 8.69056H142.528C142.498 8.1888 142.314 7.79771 141.975 7.51732C141.635 7.22216 141.2 7.07458 140.669 7.07458C140.211 7.07458 139.842 7.20002 139.562 7.4509C139.281 7.68703 139.141 8.03384 139.141 8.49133C139.141 8.9931 139.377 9.38418 139.849 9.66458C140.322 9.94498 141.06 10.2475 142.063 10.5722C143.067 10.9116 143.878 11.2363 144.498 11.5462C145.133 11.8561 145.679 12.3062 146.136 12.8966C146.594 13.4869 146.823 14.2469 146.823 15.1766C146.823 16.0621 146.594 16.8664 146.136 17.5896C145.694 18.3127 145.044 18.8882 144.188 19.3162C143.332 19.7442 142.321 19.9582 141.156 19.9582Z" fill="#001AFF"/>
<path d="M155.66 19.9582C154.524 19.9582 153.506 19.7737 152.605 19.4048C151.705 19.0358 150.982 18.4898 150.436 17.7666C149.905 17.0435 149.624 16.1728 149.595 15.1545H153.624C153.683 15.7301 153.882 16.1728 154.221 16.4827C154.561 16.7779 155.004 16.9254 155.55 16.9254C156.11 16.9254 156.553 16.8 156.878 16.5491C157.202 16.2835 157.365 15.9219 157.365 15.4644C157.365 15.0807 157.232 14.7634 156.966 14.5125C156.715 14.2617 156.398 14.055 156.014 13.8927C155.646 13.7304 155.114 13.5459 154.421 13.3393C153.417 13.0294 152.598 12.7195 151.963 12.4095C151.329 12.0996 150.783 11.6421 150.325 11.0371C149.868 10.432 149.639 9.64245 149.639 8.66843C149.639 7.22216 150.163 6.09318 151.211 5.2815C152.259 4.45506 153.624 4.04184 155.306 4.04184C157.018 4.04184 158.398 4.45506 159.446 5.2815C160.494 6.09318 161.054 7.22954 161.128 8.69056H157.033C157.003 8.1888 156.819 7.79771 156.479 7.51732C156.14 7.22216 155.705 7.07458 155.173 7.07458C154.716 7.07458 154.347 7.20002 154.066 7.4509C153.786 7.68703 153.646 8.03384 153.646 8.49133C153.646 8.9931 153.882 9.38418 154.354 9.66458C154.826 9.94498 155.564 10.2475 156.568 10.5722C157.571 10.9116 158.383 11.2363 159.003 11.5462C159.638 11.8561 160.184 12.3062 160.641 12.8966C161.099 13.4869 161.327 14.2469 161.327 15.1766C161.327 16.0621 161.099 16.8664 160.641 17.5896C160.198 18.3127 159.549 18.8882 158.693 19.3162C157.837 19.7442 156.826 19.9582 155.66 19.9582Z" fill="#001AFF"/>
</svg>
